<?xml version="1.0" encoding="UTF-8" standalone="no"?>
<!DOCTYPE svg PUBLIC "-//W3C//DTD SVG 1.1//EN" "http://www.w3.org/Graphics/SVG/1.1/DTD/svg11.dtd">
<svg width="100%" height="100%" viewBox="0 0 168 171" version="1.1" xmlns="http://www.w3.org/2000/svg" xmlns:xlink="http://www.w3.org/1999/xlink" xml:space="preserve" xmlns:serif="http://www.serif.com/" style="fill-rule:evenodd;clip-rule:evenodd;stroke-linejoin:round;stroke-miterlimit:2;">
    <g transform="matrix(1,0,0,1,-4582.21,256.214)">
        <g transform="matrix(0.295953,0,0,0.295953,4381.6,-324.687)">
            <g>
                <g transform="matrix(0.414957,0,0,0.414957,556.002,298.55)">
                    <path d="M637.715,662.453C621.632,640.458 558.745,600.857 529.239,536.448C487.27,444.031 500.816,365.039 543.41,309.913C588.058,252.129 666.158,219.066 750.616,228.033C831.068,236.649 872.085,284.852 883.591,337.478C897.913,402.982 864.919,474.75 805.967,491.438C768.676,501.962 743.031,496.221 725.399,483.702C697.189,463.672 687.043,420.911 688.88,381.038C689.198,365.444 702.117,353.042 717.711,353.36C733.306,353.678 745.708,366.597 745.39,382.191C745.481,399.61 746.731,418.853 756.175,430.617C761.853,437.69 771.695,435.803 787.102,430.591C814.492,421.349 823.215,384.729 815.008,354.177C807.989,328.046 784.711,307.075 744.149,304.56C689.428,301.117 639.033,322.186 611.678,360.579C587.361,394.708 584.853,442.431 612.009,497.118C632.515,538.755 659.018,563.573 686.334,578.065C729.163,600.786 798.564,597.6 834.981,572.466C878.347,542.536 899.014,467.589 964.652,405.228C981.059,389.951 999.511,376.973 1019.31,366.295C1057.23,345.755 1075.27,301.226 1062.35,260.084C1062.47,260.041 1062.47,260.039 1062.47,260.039C1051.85,248.618 1052.5,230.722 1063.92,220.098C1075.34,209.475 1093.24,210.122 1103.86,221.543C1124.02,233.041 1138,244.755 1151.94,257.407C1159.08,263.884 1164.31,270.546 1169.43,277.405C1169.43,277.407 1169.43,277.41 1169.43,277.412C1172.89,282.04 1178.33,284.766 1184.1,284.765C1189.88,284.765 1195.31,282.038 1198.77,277.409C1198.77,277.41 1198.78,277.407 1198.78,277.405C1203.9,270.546 1209.13,263.884 1216.27,257.407C1230.21,244.755 1244.18,233.041 1264.34,221.543C1274.97,210.122 1292.86,209.475 1304.29,220.098C1315.7,230.722 1316.35,248.618 1305.73,260.039C1305.73,260.039 1304.67,263.398 1302.98,268.809C1289.9,310.444 1303.51,355.842 1337.32,383.425C1376.59,414.937 1402.49,459.634 1405.74,516.441C1410.61,604.823 1385.73,674.071 1348.77,724.941C1292.06,802.993 1207.34,837.675 1156.78,835.576C1106.08,833.41 1061.84,792.725 1043.91,737.447C1029,691.458 1031.59,637.514 1059.74,597.098C1092.18,550.639 1148.78,531.25 1188.05,537.175C1213.65,541.037 1232.98,554.086 1241.61,573.492C1248.36,588.671 1250.15,609.078 1238.23,634.189C1231.86,648.427 1215.13,654.815 1200.89,648.446C1186.66,642.076 1180.27,625.346 1186.64,611.108C1188.82,605.912 1189.94,601.709 1189.05,598.267C1188.86,597.544 1187.71,598.232 1187.01,597.938C1184.47,596.882 1181.46,596.645 1178.28,596.485C1171.32,596.136 1163.61,597.653 1155.78,600.252C1139.98,605.502 1124.2,616.586 1113.7,633.076C1098.39,657.09 1099.92,688.426 1109.62,714.646C1118.73,739.266 1135.52,761.301 1158.44,761.347C1192.44,761.456 1245.73,731.969 1281.91,678.186C1307.8,639.686 1323.65,587.851 1317.83,522.796C1312.67,463.326 1259.99,433.314 1202.14,425.993C1143.36,418.555 1076.64,434.746 1032.97,477.101C988.452,519.537 974.92,547.416 951.72,582.044C933.96,608.552 900.334,647.429 878.079,679.592C865.442,697.854 855.301,757.018 858.683,770.59C862.118,784.375 863.737,798.467 871.472,813.599C881.899,825.2 880.945,843.083 869.344,853.509C857.743,863.935 839.86,862.982 829.434,851.381C805.644,835.731 790.548,817.933 776.734,799.442C769.637,789.942 765.086,780.149 760.807,770.319C760.805,770.314 760.803,770.31 760.801,770.305C758.771,765.643 754.224,762.581 749.141,762.452C744.058,762.324 739.362,765.153 737.099,769.707C733.911,776.864 730.773,783.222 728.516,786.76C713.691,809.997 697.229,831.765 673.883,850.267C664.072,862.392 646.262,864.271 634.137,854.459C622.012,844.648 620.133,826.838 629.944,814.713C638.325,797.695 642.31,780.753 644.738,763.114C654.213,694.301 651.58,681.414 637.715,662.453Z" style="fill:white;"/>
                </g>
                <g transform="matrix(0.471352,0,0,0.471352,502.406,269.772)">
                    <path d="M647.938,-81.489L767.137,-46.694L921.941,-42.762L1336.9,-66.606L1410.83,-40.36L1516.12,-39.846L1520.66,210.576L1552.88,312.477L1572.88,717.506L1519.65,960.36L1513.69,1070.51L1235.34,1070.51L1137.1,1144.11L827.882,1090.38L565.529,1115.64L389.344,1064.62L389.344,763.278L408.773,694.358L372.254,557.868L372.85,553.231C372.85,553.231 389.177,426.645 389.343,362.835L374.909,187.758L390.84,-42.081L647.938,-81.489ZM435.543,-0.938L422.486,187.448L436.785,360.898L436.785,361.875C436.785,420.032 423.468,530.605 420.49,554.603L457.971,694.686L436.785,769.837L436.785,1028.97L570.012,1067.54L829.702,1042.54L1125.04,1093.86L1219.54,1023.07C1219.54,1023.07 1468.75,1023.07 1468.75,1023.07L1472.49,953.957L1525.19,713.528L1505.8,320.937L1473.35,218.316L1469.53,7.368L1402.54,7.041L1330.06,-18.693L922.7,4.714L759.765,0.575L644.735,-33.003L435.543,-0.938Z" style="fill:white;"/>
                </g>
                <g transform="matrix(1,0,0,1,-6.04947,0)">
                    <g transform="matrix(-0.497488,8.93822e-17,-3.74448e-17,-0.448578,1280.55,417.254)">
                        <path d="M652.245,156.125L696.552,212.535L607.937,212.535L652.245,156.125Z" style="fill:white;"/>
                    </g>
                    <g transform="matrix(-0.497488,8.93822e-17,-3.74448e-17,-0.448578,1442.89,417.254)">
                        <path d="M652.245,156.125L696.552,212.535L607.937,212.535L652.245,156.125Z" style="fill:white;"/>
                    </g>
                    <g transform="matrix(-0.497488,8.93822e-17,-3.74448e-17,-0.448578,1205.01,417.254)">
                        <path d="M652.245,156.125L696.552,212.535L607.937,212.535L652.245,156.125Z" style="fill:white;"/>
                    </g>
                    <g transform="matrix(0.497488,-1.78764e-16,7.48896e-17,0.448578,834.554,251.882)">
                        <path d="M652.245,156.125L696.552,212.535L607.937,212.535L652.245,156.125Z" style="fill:white;"/>
                    </g>
                    <g transform="matrix(0.497488,-1.78764e-16,7.48896e-17,0.448578,596.667,251.882)">
                        <path d="M652.245,156.125L696.552,212.535L607.937,212.535L652.245,156.125Z" style="fill:white;"/>
                    </g>
                    <g transform="matrix(0.497488,-1.78764e-16,7.48896e-17,0.448578,749.84,251.882)">
                        <path d="M652.245,156.125L696.552,212.535L607.937,212.535L652.245,156.125Z" style="fill:white;"/>
                    </g>
                    <g transform="matrix(0.497488,-1.78764e-16,7.48896e-17,0.448578,511.953,251.882)">
                        <path d="M652.245,156.125L696.552,212.535L607.937,212.535L652.245,156.125Z" style="fill:white;"/>
                    </g>
                    <g transform="matrix(0.497488,-1.78764e-16,7.48896e-17,0.448578,667.981,251.882)">
                        <path d="M652.245,156.125L696.552,212.535L607.937,212.535L652.245,156.125Z" style="fill:white;"/>
                    </g>
                    <g transform="matrix(0.497488,-1.78764e-16,7.48896e-17,0.448578,430.094,251.882)">
                        <path d="M652.245,156.125L696.552,212.535L607.937,212.535L652.245,156.125Z" style="fill:white;"/>
                    </g>
                    <g transform="matrix(-0.497488,8.93822e-17,-3.74448e-17,-0.448578,1358.63,417.254)">
                        <path d="M652.245,156.125L696.552,212.535L607.937,212.535L652.245,156.125Z" style="fill:white;"/>
                    </g>
                    <g transform="matrix(-0.497488,8.93822e-17,-3.74448e-17,-0.448578,1120.74,417.254)">
                        <path d="M652.245,156.125L696.552,212.535L607.937,212.535L652.245,156.125Z" style="fill:white;"/>
                    </g>
                </g>
                <g transform="matrix(1,0,0,1,-6.04947,337.919)">
                    <g transform="matrix(-0.497488,8.93822e-17,-3.74448e-17,-0.448578,1280.55,440.885)">
                        <path d="M652.245,156.125L696.552,212.535L607.937,212.535L652.245,156.125Z" style="fill:white;"/>
                    </g>
                    <g transform="matrix(-0.497488,8.93822e-17,-3.74448e-17,-0.448578,1442.89,440.885)">
                        <path d="M652.245,156.125L696.552,212.535L607.937,212.535L652.245,156.125Z" style="fill:white;"/>
                    </g>
                    <g transform="matrix(-0.497488,8.93822e-17,-3.74448e-17,-0.448578,1205.01,440.885)">
                        <path d="M652.245,156.125L696.552,212.535L607.937,212.535L652.245,156.125Z" style="fill:white;"/>
                    </g>
                    <g transform="matrix(0.497488,-1.78764e-16,7.48896e-17,0.448578,834.554,275.512)">
                        <path d="M652.245,156.125L696.552,212.535L607.937,212.535L652.245,156.125Z" style="fill:white;"/>
                    </g>
                    <g transform="matrix(0.497488,-1.78764e-16,7.48896e-17,0.448578,596.667,275.512)">
                        <path d="M652.245,156.125L696.552,212.535L607.937,212.535L652.245,156.125Z" style="fill:white;"/>
                    </g>
                    <g transform="matrix(0.497488,-1.78764e-16,7.48896e-17,0.448578,749.84,275.512)">
                        <path d="M652.245,156.125L696.552,212.535L607.937,212.535L652.245,156.125Z" style="fill:white;"/>
                    </g>
                    <g transform="matrix(0.497488,-1.78764e-16,7.48896e-17,0.448578,511.953,275.512)">
                        <path d="M652.245,156.125L696.552,212.535L607.937,212.535L652.245,156.125Z" style="fill:white;"/>
                    </g>
                    <g transform="matrix(0.497488,-1.78764e-16,7.48896e-17,0.448578,667.981,275.512)">
                        <path d="M652.245,156.125L696.552,212.535L607.937,212.535L652.245,156.125Z" style="fill:white;"/>
                    </g>
                    <g transform="matrix(0.497488,-1.78764e-16,7.48896e-17,0.448578,430.094,275.512)">
                        <path d="M652.245,156.125L696.552,212.535L607.937,212.535L652.245,156.125Z" style="fill:white;"/>
                    </g>
                    <g transform="matrix(-0.497488,8.93822e-17,-3.74448e-17,-0.448578,1358.63,440.885)">
                        <path d="M652.245,156.125L696.552,212.535L607.937,212.535L652.245,156.125Z" style="fill:white;"/>
                    </g>
                    <g transform="matrix(-0.497488,8.93822e-17,-3.74448e-17,-0.448578,1120.74,440.885)">
                        <path d="M652.245,156.125L696.552,212.535L607.937,212.535L652.245,156.125Z" style="fill:white;"/>
                    </g>
                </g>
            </g>
        </g>
    </g>
</svg>
